PathFileType	4	(X/Y/Z)	..\data\2014015\dynamic\2014015_C5_03.trc
DataRate	CameraRate	NumFrames	NumMarkers	Units	OrigDataRate	OrigDataStartFrame	OrigNumFrames
100.000000	100.000000	4	52	mm	100.000000	81	163
Frame#	Time	L_IAS			L_IPS			R_IPS			R_IAS			L_FTC			L_FLE			L_FME			L_FAX			L_TTC			L_FAL			L_TAM			L_FCC			L_FM1			L_FM2			L_FM5			R_FTC			R_FLE			R_FME			R_FAX			R_TTC			R_FAL			R_TAM			R_FCC			R_FM1			R_FM2			R_FM5			CV7			TV10			SXS			SJN			L_SIA			L_SRS			L_SAA			L_SAE			L_HLE			L_HME			L_UOA			L_RSP			L_UHE			L_HM2			L_HM5			R_SIA			R_SRS			R_SAA			R_SAE			R_HLE			R_HME			R_UOA			R_RSP			R_UHE			R_HM2			R_HM5			
		X1	Y1	Z1	X2	Y2	Z2	X3	Y3	Z3	X4	Y4	Z4	X5	Y5	Z5	X6	Y6	Z6	X7	Y7	Z7	X8	Y8	Z8	X9	Y9	Z9	X10	Y10	Z10	X11	Y11	Z11	X12	Y12	Z12	X13	Y13	Z13	X14	Y14	Z14	X15	Y15	Z15	X16	Y16	Z16	X17	Y17	Z17	X18	Y18	Z18	X19	Y19	Z19	X20	Y20	Z20	X21	Y21	Z21	X22	Y22	Z22	X23	Y23	Z23	X24	Y24	Z24	X25	Y25	Z25	X26	Y26	Z26	X27	Y27	Z27	X28	Y28	Z28	X29	Y29	Z29	X30	Y30	Z30	X31	Y31	Z31	X32	Y32	Z32	X33	Y33	Z33	X34	Y34	Z34	X35	Y35	Z35	X36	Y36	Z36	X37	Y37	Z37	X38	Y38	Z38	X39	Y39	Z39	X40	Y40	Z40	X41	Y41	Z41	X42	Y42	Z42	X43	Y43	Z43	X44	Y44	Z44	X45	Y45	Z45	X46	Y46	Z46	X47	Y47	Z47	X48	Y48	Z48	X49	Y49	Z49	X50	Y50	Z50	X51	Y51	Z51	X52	Y52	Z52	

82	0.8100000000000001	-139.8952789306641	849.5861816406252	87.20470428466797	-353.9168701171876	871.669616699219	172.5372009277343	-356.0593872070314	865.4190673828127	272.5825500488281	-136.3952941894532	836.0793457031252	352.9380187988282	-219.5504913330079	771.864929199219	28.61088371276853	-230.0581512451172	417.3922119140626	102.3481597900391	-217.3832092285157	419.7377929687501	242.6977996826172	-245.8256835937501	361.5134887695313	102.7036437988281	-183.1371002197266	367.3383178710938	149.0308532714844	-288.7539367675782	65.2977752685547	149.8841094970703	-265.8793334960939	79.53537750244142	234.8621520996094	-327.6493530273438	28.31196975708009	194.4067840576172	-148.6259460449219	20.389554977417	231.0596160888672	-132.2296142578126	35.57818984985352	176.6086578369141	-177.6519775390626	19.14917945861817	116.4441833496094	-208.8386383056642	741.4305419921876	400.5592346191407	-97.84970855712898	425.2799377441407	384.580780029297	-48.19837951660161	401.6894531250001	254.1840362548829	-120.1909103393555	380.7993469238282	385.1949462890626	-62.36594772338873	355.2080688476563	334.3574218750001	-330.606414794922	166.7358856201172	316.3267822265625	-278.3181152343751	162.1966857910157	239.9744110107422	-376.6409912109376	155.8625030517578	261.3042907714844	-228.6512451171876	51.03169631958009	254.6460876464844	-221.0402832031251	57.84084320068361	308.0599670410157	-273.470672607422	76.28702545166017	346.3152465820312	-303.1566467285157	1316.388671875	230.3838958740235	-363.7219848632813	1121.964721679688	227.6698913574219	-113.4848709106446	1038.512939453125	221.3141326904297	-176.6363830566407	1248.036499023438	223.7964477539063	-370.9038696289063	1147.794555664063	157.4085540771484	-335.2769775390626	1269.109619140625	155.0435485839844	-304.1480407714844	1277.477172851563	92.36515045166013	-247.6036834716797	1269.270263671875	49.93277359008788	-267.4353637695313	1002.513061523438	-18.01465988159183	-298.8793029785157	979.532653808594	64.9302062988281	-304.5823059082032	974.9651489257815	15.23997879028317	-187.6579895019532	794.337829589844	7.641007423400858	-235.4951324462891	797.330017089844	-55.92927169799809	-151.5730743408203	713.3520507812501	-9.883454322814961	-227.5397338867188	718.6292724609376	-68.26599884033207	-361.4860839843751	1147.687377929688	329.4595031738281	-324.0586547851564	1270.542236328125	317.1162719726562	-292.7877197265626	1276.253540039063	373.9815979003906	-214.1180114746095	1272.331665039063	401.5521545410157	-236.6856842041017	998.9274902343752	479.0367431640626	-296.0867919921876	994.4796142578127	398.0190429687501	-288.2529296875001	981.899108886719	455.4771118164063	-161.3771514892579	801.534362792969	424.8066711425782	-200.852264404297	789.4964599609377	490.334197998047	-126.798683166504	711.5183105468751	429.171600341797	-207.3687133789064	718.0584716796876	491.5470581054689	
83	0.8200000000000001	-128.8209838867188	848.9919433593752	87.79549407958984	-342.5179443359376	871.6782226562502	172.0265197753906	-345.1800537109376	865.911804199219	271.3603515625	-126.2895965576173	836.8286743164065	354.8490905761719	-209.6428833007813	771.0695800781252	28.92655754089354	-226.6138916015626	417.623016357422	103.2296676635742	-212.552459716797	419.7703247070314	243.6348419189453	-242.9164733886719	361.9902648925782	103.6615447998047	-180.5020599365235	366.8844604492188	149.8739776611328	-288.5279541015626	65.96878051757814	150.6911315917969	-265.364959716797	79.84023284912111	235.853012084961	-327.4837036132813	28.95939445495606	195.457748413086	-148.1884307861329	20.14672279357911	231.1310729980469	-132.0082702636719	35.41161727905274	176.6801605224609	-177.8698120117188	19.29640197753907	116.808837890625	-197.851043701172	741.7949829101564	400.6479797363282	-77.25058746337896	427.8760070800782	382.3356933593751	-28.02528572082523	406.272674560547	252.0147094726563	-97.88739013671882	382.0619506835938	382.8728332519532	-39.32215118408208	359.3350524902344	332.1351623535157	-296.2144775390626	155.2911682128907	316.1275329589844	-245.1412506103516	154.3700256347657	238.9075927734375	-342.341766357422	141.8199005126953	261.1056518554688	-187.4211425781251	47.3183937072754	253.606689453125	-179.831771850586	54.76525115966798	306.9588317871094	-233.5414123535157	69.31984710693361	345.5875549316406	-290.2780151367188	1316.51708984375	229.7869873046875	-351.3256530761719	1122.310668945313	226.6005096435547	-101.248390197754	1038.2646484375	221.6797332763672	-163.8804168701172	1247.875122070313	223.7964935302735	-358.1082153320313	1148.177856445313	156.2243194580078	-322.1835021972657	1269.369873046875	154.2565002441406	-290.7304382324219	1277.678466796875	91.70297241210935	-234.0037841796876	1269.404296875	49.62512969970702	-252.3558807373047	1002.960021972656	-19.52107810974125	-284.4045104980469	979.445983886719	63.11054611206053	-289.6960449218751	974.9258422851565	13.32638835906979	-170.1052856445313	795.9136962890627	5.834710121154766	-217.6584014892579	797.9920043945315	-57.25604248046879	-132.0087890625	715.4621582031251	-12.06176376342775	-208.4167633056641	719.6631469726564	-69.8899307250977	-349.4242553710939	1147.949462890625	328.3193969726562	-311.6067199707032	1270.639526367188	316.3445129394531	-280.565155029297	1276.244018554688	373.3841857910156	-202.0930023193361	1272.115600585938	401.3617553710939	-226.219451904297	999.0356445312502	479.2405395507814	-285.1639709472657	994.7207031250002	397.9789123535157	-277.764129638672	982.2248535156252	455.5577087402344	-151.3458404541016	801.2998046875002	425.7940368652345	-191.3939514160157	789.4309082031252	491.0865478515626	-117.2666625976563	711.1271972656251	430.4875793457032	-198.233856201172	717.9531860351564	492.2742919921876	
84	0.8300000000000001	-117.7680587768555	848.0549926757815	88.47111511230469	-331.1782836914063	871.513854980469	171.7569274902344	-334.2680053710939	866.1048583984377	270.4718322753906	-115.9371414184571	837.277282714844	356.3790893554688	-199.6522369384766	770.3933715820315	29.29698753356932	-223.0255279541016	417.8410644531251	104.2296600341797	-207.629608154297	419.5645446777345	244.6794738769532	-239.884017944336	362.4419555664063	104.7112808227539	-177.7324829101563	366.3885803222657	150.8306732177734	-288.3591918945313	66.72068023681642	151.5817718505859	-264.8357849121095	80.18035888671876	236.9430236816407	-327.3290405273438	29.65664863586426	196.6094970703125	-147.801742553711	19.92955589294434	231.2387237548828	-131.8438720703126	35.30622482299805	176.7810516357422	-178.161361694336	19.51690864562989	117.2373733520508	-186.3482818603516	742.0342407226564	400.920867919922	-57.67802429199225	430.1577148437501	380.0250244140626	-8.764020919799837	410.4336242675782	249.9060668945313	-76.36211395263678	383.0242004394532	380.5669250488282	-17.11445045471196	363.2651062011719	329.9166870117188	-261.0131835937501	143.5975189208985	316.0448303222656	-211.154022216797	146.2577209472657	238.0728149414063	-306.765594482422	127.4656295776367	261.056396484375	-145.7743225097657	43.86676025390626	252.920654296875	-138.407455444336	51.92241287231447	306.2183227539063	-193.0525817871095	62.63182449340822	345.1585083007813	-277.4210815429688	1316.411743164063	229.2247009277344	-338.9747619628907	1122.441162109375	225.5353546142578	-89.02828216552739	1037.7958984375	222.0500946044922	-151.1266021728516	1247.491455078125	223.8240814208985	-345.3004455566407	1148.339233398438	155.0320587158203	-309.0772094726563	1269.385498046875	153.478271484375	-277.3004150390626	1277.669189453125	91.07040405273436	-220.3736419677735	1269.348388671875	49.33721923828124	-237.3763275146485	1003.200012207031	-20.99621009826663	-269.9363708496094	979.1558837890627	61.35519790649412	-274.8608703613282	974.7000732421877	11.48464393615719	-152.4701080322266	797.5053710937502	4.011428833007795	-199.9510345458985	798.4562988281252	-58.4294471740723	-112.398910522461	717.5734863281251	-14.20599460601808	-189.36767578125	720.4780883789064	-71.25048065185551	-337.4140625000001	1147.98388671875	327.1891174316406	-299.2062072753907	1270.511596679688	315.5758361816406	-268.4163818359376	1275.982543945313	372.7982788085938	-190.137420654297	1271.6298828125	401.1954956054689	-215.7796478271486	998.8867187500002	479.4394836425782	-274.2346496582032	994.6431274414065	397.8910827636719	-267.2729492187501	982.2671508789065	455.5594787597657	-141.2174835205079	800.8205566406252	426.9725036621095	-182.027801513672	789.0913085937502	491.9368286132814	-107.5985641479493	710.5358276367189	432.1667785644532	-189.1333770751954	717.5810546875001	493.1158447265626	
85	0.84	-106.7234649658204	846.7459716796877	89.17591094970703	-319.8795166015626	871.185974121094	171.7684326171875	-323.2946777343751	865.9829711914065	269.9599304199219	-105.2747955322266	837.424743652344	357.5035705566407	-189.5859069824219	769.7791748046877	29.72187423706053	-219.2745513916016	418.0299072265626	105.3235778808594	-202.627899169922	419.1326293945314	245.7913513183594	-236.7038116455079	362.8508605957032	105.8218612670898	-174.7890930175782	365.8411254882813	151.8663024902344	-288.2387084960938	67.55407714843751	152.5238342285156	-264.2929077148439	80.55252838134767	238.0995330810547	-327.1871337890626	30.41960144042969	197.8238677978516	-147.4823913574219	19.73302459716797	231.3827056884766	-131.7460479736329	35.25392150878907	176.9067077636719	-178.5227966308594	19.79228782653809	117.7208023071289	-174.3137664794923	742.1798095703126	401.378387451172	-39.17527389526373	432.0486755371095	377.6798706054688	9.495707511901827	414.1000366210939	247.8332214355469	-55.67706680297858	383.6502380371094	378.2839355468751	4.193390369415244	366.9431152343751	327.7057800292969	-225.035629272461	131.9224090576172	316.0332336425782	-176.3206787109376	138.0968627929688	237.4595794677735	-269.899627685547	113.0791091918946	261.1111755371094	-103.7083587646485	40.88775634765626	252.6032714843751	-96.76205444335945	49.55077743530275	305.8533935546876	-152.0151062011719	56.46097564697267	345.0161437988282	-264.5872192382813	1316.076904296875	228.6987762451172	-326.6663818359376	1122.35986328125	224.483871459961	-76.83460998535161	1037.096557617188	222.4268188476563	-138.3680267333985	1246.89208984375	223.880126953125	-332.4824218750001	1148.283081054688	153.8404388427734	-295.9598693847657	1269.16748046875	152.7104187011719	-263.8524780273438	1277.451416015625	90.46826934814452	-206.7066497802735	1269.098754882813	49.07154464721678	-222.5002593994141	1003.225524902344	-22.42656326293949	-255.4674835205079	978.6499023437502	59.67761230468749	-260.0762023925782	974.276306152344	9.72983169555661	-134.756591796875	799.0788574218752	2.226384639739974	-182.3620758056641	798.7219848632815	-59.45778274536136	-92.78098297119142	719.6831665039064	-16.26940155029298	-170.3797454833985	721.0647583007814	-72.35920715332034	-325.4547119140626	1147.79150390625	326.0757141113281	-286.860565185547	1270.1630859375	314.8135986328125	-256.3513488769532	1275.473876953125	372.2235717773438	-178.264633178711	1270.883666992188	401.0580139160157	-205.3447723388673	998.4790649414065	479.6210327148439	-263.2841186523439	994.2432861328127	397.7441101074219	-256.7550354003907	982.0239868164065	455.4669189453126	-131.0099182128907	800.0823364257815	428.3217773437501	-172.7384033203126	788.4819335937502	492.8784484863282	-97.81228637695321	709.7288208007814	434.1824340820314	-180.0620117187501	716.9497680664064	494.0747375488282	
